PathFileType	4	(X/Y/Z)	C:\Users\°ÂÌØÂü\Desktop\20210112\bx_y_0_902-Unnamed.trc
DataRate	CameraRate	NumFrames	NumMarkers	Units	OrigDataRate	OrigDataStartFrame	OrigNumFrames
50.00	50.00	       8	0	mm	50.00	350	       466
Frame#	Time	
		

350	6.980	-611.66254	111.45330	1843.15247	-708.20209	-53.19566	717.50476	-742.44556	243.24113	645.06934	-607.76587	-13.57953	1051.09778	-698.19275	74.72810	573.76135	-603.03900	212.01593	815.38098	-742.91254	242.11914	578.46027	-686.06403	203.68858	534.48700	-780.54071	250.69048	503.50787	-663.70435	-67.97459	162.44955	-605.19965	211.69040	1067.50793	-603.64575	20.25105	166.44972	-675.66998	54.91089	158.17819	-712.19598	152.55281	216.58046	-796.56189	172.34164	184.04628	-772.02832	222.57539	205.48146	-594.46216	222.72577	173.17235	-882.58575	296.13757	144.56622	-560.71710	260.46405	166.10034	-667.11975	299.78036	159.36552	-629.97095	307.83359	162.36031	-528.12280	304.28763	146.42749	-603.58942	-78.88792	1534.09583	-810.39844	87.22081	1064.41516	-767.99091	-6.13145	207.64444	-795.15924	54.35061	174.82281	-768.93640	-39.84142	487.42776	-559.67120	-37.27200	162.32399	-875.85034	-78.68372	141.27127	-558.86249	99.06835	1414.30469	-724.25446	-29.98055	566.97223	-675.66803	173.92870	156.94859	-622.18518	-78.59484	157.81061	-662.39398	274.84360	880.21161	-711.49255	267.86230	750.67548	-518.05164	-72.67449	143.09662	-600.82935	-9.51533	803.74152	-718.45056	77.26031	217.73787	-674.91467	13.98367	520.09253	-616.95160	285.49805	1536.60779							-700.70850	140.60634	571.62323	-712.02179	-33.72821	615.16974	-672.53003	-74.24628	860.94135	
351	7.000	-617.62518	111.89867	1844.48865	-707.55304	-55.03924	718.26904	-740.55658	242.95544	645.19366	-605.84058	-14.59493	1051.39771	-696.95490	74.57194	573.91901	-600.57648	211.39842	815.19519	-741.36847	241.08461	577.87659	-684.83881	203.23790	534.32599	-779.58771	250.59831	503.96378	-663.71722	-68.05324	162.37959	-602.57996	211.69055	1067.93762	-603.56378	20.15068	166.42844	-675.40009	54.61946	158.05573	-711.99146	152.06546	216.61441	-796.42181	172.23631	183.99358	-771.98779	222.62489	205.72881	-594.42139	222.69725	173.31291	-882.53638	296.09531	144.59125	-560.76965	260.42105	165.99294	-667.11975	299.78036	159.36552	-629.98010	307.60635	162.29602	-528.11450	304.37653	146.40186	-607.73914	-79.16534	1536.63599	-808.19867	87.10532	1063.89795	-767.88007	-6.27913	207.69405	-795.02301	54.63183	174.66910	-768.13196	-39.71842	487.44736	-559.53949	-37.46346	162.25232	-875.85522	-78.73365	141.22168	-561.17194	98.95712	1416.15234	-723.27509	-30.60260	567.11072	-675.52875	173.83879	157.08871	-622.14294	-79.01065	157.51540	-659.41583	274.55902	880.18591	-709.19971	267.10678	750.46631	-517.95563	-72.40131	142.98645	-599.22308	-9.78403	803.43054	-718.28802	77.19822	217.77644	-673.78546	13.51353	520.32269	-621.01959	285.67969	1537.74304							-699.47247	140.29985	572.13599	-711.18689	-34.47093	615.63513	-670.30725	-74.73878	860.79028	
352	7.020	-623.29907	112.36760	1845.77014	-702.78925	-55.33644	718.74188	-738.75085	242.73286	645.28662	-604.29926	-15.07915	1051.65833	-695.72852	74.10112	574.06061	-598.88348	210.62860	814.52356	-740.17755	241.59520	578.65710	-683.69806	203.19969	533.94226	-778.62842	250.43361	504.78455	-663.69592	-67.96677	162.52972	-600.41565	211.01468	1068.03369	-603.55566	20.26896	166.50262	-675.53595	54.74093	158.15746	-711.90594	152.00462	216.39320	-796.31818	172.25812	184.17947	-771.91742	222.61084	205.74933	-594.48499	222.66698	173.38101	-882.50470	296.02646	144.50813	-560.58734	260.43137	165.91312	-666.97900	299.88052	159.28197	-629.88605	307.70828	162.43321	-528.07397	304.01920	146.39075	-611.83978	-79.03260	1537.85229	-805.68134	86.99739	1063.36633	-767.96234	-6.26285	207.66847	-794.98450	54.41854	174.73920	-767.06104	-39.73069	487.52756	-559.33777	-37.50830	162.09142	-876.00970	-78.74700	141.30463	-563.30774	99.18584	1417.88794	-722.23523	-30.76414	566.92548	-675.55304	174.10629	156.94783	-622.34741	-78.87727	157.84959				-706.62268	266.96460	750.46490	-517.94824	-72.33575	142.87395	-597.37274	-9.73457	803.81805	-718.15265	77.08276	217.66344	-673.16760	13.83495	520.27319	-625.27893	285.73636	1538.53235										-709.26660	-34.13409	615.15887	-668.18732	-75.60989	860.96606	
353	7.040	-629.33746	112.45351	1846.67993	-700.37408	-55.97396	719.26898	-737.28424	242.47128	645.43268	-602.65167	-15.81793	1051.24829	-694.94611	74.22801	573.92859	-596.83722	209.80531	814.43298	-738.71295	241.13210	578.08777	-682.72278	202.68314	533.93756	-777.42108	249.96565	504.46310	-663.66418	-68.07262	162.26273	-597.61517	210.33287	1068.06201	-603.51074	20.16311	166.35522	-675.51752	54.58936	157.91222	-711.59814	151.95808	216.35719	-796.30566	172.20816	184.09087	-771.80499	222.51877	205.72479	-594.46216	222.72577	173.17235	-882.63641	296.19785	144.62160	-560.54865	260.63943	166.14885	-667.10834	299.60376	159.53885	-629.92841	307.55011	162.23549	-527.90717	304.24350	146.56856	-615.92914	-78.66895	1539.18909	-803.74872	87.04363	1063.07068	-767.73163	-6.54693	207.68738	-795.10663	54.43629	175.15375	-766.18799	-39.92905	487.30405	-559.42084	-37.56446	162.18892	-875.80096	-78.78884	141.48030	-565.49799	99.14618	1419.81042	-721.08154	-30.84854	566.89087	-675.45331	173.97589	156.94984	-622.69006	-78.51607	157.29677	-653.97205	273.20197	880.00574	-704.52966	266.61963	750.62537	-517.85248	-72.48830	142.86571	-595.52789	-10.07714	803.65857	-717.96631	77.05933	217.63461	-672.07977	13.38012	520.00171	-629.05981	286.11694	1539.45386	-696.47131	139.75246	572.04340							-708.02112	-34.68387	615.36798	-666.21490	-75.80801	860.27777	
354	7.060	-634.92224	112.99986	1847.70410	-701.10370	-56.19152	718.62817	-735.38617	242.05669	645.43408	-600.69537	-16.25102	1051.08752	-693.58765	73.97316	573.98663	-594.78101	209.07758	813.89038	-737.74115	240.91203	577.98096	-681.01617	202.87988	534.23560	-776.36169	249.63408	504.63992	-663.71069	-68.10328	162.50645	-595.14282	210.36365	1068.14478	-603.51074	20.16311	166.35522	-675.53595	54.74093	158.15746	-711.68243	151.83350	216.21484	-796.25818	172.21765	184.16267	-771.76410	222.45444	205.93002	-594.42139	222.69725	173.31291	-882.58032	296.03918	144.61433	-560.53894	260.51175	165.99454	-667.09851	299.70938	159.39682	-629.98047	307.63623	162.48920	-528.12280	304.28763	146.42749	-619.57648	-78.41577	1540.51184	-801.66113	87.12147	1062.33728	-767.70380	-6.68621	207.90909	-794.92291	54.35019	174.72125	-766.37830	-41.14899	487.59842	-559.12054	-37.43312	162.12968	-875.80096	-78.78884	141.48030	-567.75140	98.61009	1421.48547	-719.99445	-31.02085	567.19141	-675.52875	173.83879	157.08871	-622.35889	-78.61747	157.66626	-651.88062	272.78088	879.40314	-702.06458	266.04831	750.04816	-517.96301	-72.47556	142.86884	-593.39984	-10.57109	803.64966	-718.14868	76.82022	217.48648	-671.20697	13.67261	519.81885	-632.67853	286.82312	1540.85510	-695.39319	139.67061	571.86768							-706.80273	-34.61129	614.97498	-664.74829	-76.13560	860.27960	
355	7.080	-640.58191	113.22477	1848.25244	-697.86322	-55.15329	718.29242	-733.83276	242.14706	645.70361	-598.66071	-16.83778	1051.40710	-693.62628	73.66669	574.63251	-592.54565	209.14815	813.84564				-679.92542	203.12747	533.97015	-775.60956	249.84380	505.16275	-663.64423	-68.11285	162.41241	-593.35004	208.94762	1067.81238	-603.46942	20.15566	166.40770	-675.59833	54.94675	157.96524	-711.23059	151.99139	216.44472	-796.22791	172.19200	184.17436	-771.67963	222.29695	205.91576	-594.34784	222.58765	173.32185	-882.55640	296.06802	144.49452	-560.55322	260.59143	166.25851	-667.10834	299.60376	159.53885	-629.99353	307.48416	162.32967	-528.11450	304.37653	146.40186	-623.67908	-78.14436	1542.00488	-799.84497	87.12626	1061.72998	-767.70166	-6.69521	207.67110	-794.97821	54.35515	174.85081	-765.87885	-41.21037	487.59586	-559.32318	-37.42069	162.37651	-875.85034	-78.68372	141.27127				-719.31372	-31.39435	567.29340	-675.76160	173.81808	156.81932	-622.36261	-78.65553	157.42126	-649.75891	272.34851	879.01526	-700.36023	265.99536	750.08368	-517.86969	-72.68038	143.10388	-591.68842	-10.55220	803.25885	-717.96631	77.05933	217.63461	-670.51538	13.57589	519.72656	-636.73505	286.72568	1541.36365	-694.63281	139.25774	571.56866							-705.90643	-34.65428	614.90204	-662.49133	-76.37590	859.76624	
356	7.100	-646.13995	113.59110	1848.99365	-695.99536	-55.46026	718.31201	-732.14105	242.15128	645.77240	-597.14148	-17.44588	1051.02576	-693.41437	73.70272	574.58118	-590.40582	208.51465	813.89642	-572.46332	99.05061	1422.90356	-679.02832	202.75436	534.07343	-774.43781	249.58134	505.27295	-663.69135	-68.07834	162.43842	-590.62238	208.67270	1067.99585	-603.46942	20.15566	166.40770	-675.40009	54.61946	158.05573	-711.13330	151.83020	216.48053	-796.16791	172.15155	184.15756	-771.53503	222.38411	206.19107	-594.34784	222.58765	173.32185	-882.60010	295.98544	144.47417	-560.53894	260.51175	165.99454	-667.20471	299.62662	159.55911	-629.85797	307.59686	162.43147	-528.07770	304.24625	146.45256	-627.12872	-78.01262	1543.18030	-797.78760	87.15907	1061.44653	-767.66254	-6.78917	207.80247	-795.00330	54.30382	174.92400	-765.16547	-41.47114	488.02466	-559.34564	-37.56866	162.32629	-875.99139	-78.70409	141.37393	-734.88623	240.28528	578.22833	-718.21613	-31.48125	567.00330	-675.57495	173.85094	156.80867	-622.54559	-78.66139	157.35843	-647.49976	272.45685	879.31976	-698.57953	265.67090	750.09277	-517.78564	-72.52723	143.00171	-589.94507	-10.73639	802.83679	-717.96631	77.05933	217.63461	-669.95673	13.58130	519.65814	-639.93073	286.64151	1541.57190	-692.74603	139.23550	572.10559							-704.66376	-34.66320	615.11206	-660.59985	-76.59641	859.86334	
357	7.120	-651.75317	113.65012	1849.58716	-694.82739	-55.71222	718.32965	-730.75562	241.89548	646.07642	-595.64026	-17.52031	1051.18762	-692.79535	73.92002	574.86279	-588.78192	208.08615	813.52612	-575.12262	98.91464	1424.37329	-677.52753	202.23160	533.73407	-773.10895	249.38408	505.25217	-663.65063	-68.00780	162.50406	-588.71863	208.54071	1068.23425	-603.52246	20.14324	166.48091	-675.40009	54.61946	158.05573	-711.21704	151.55011	216.39229	-796.12872	172.09090	184.27321	-771.40997	222.02556	206.00255	-594.30786	222.62851	173.20424	-882.65179	296.02704	144.46056	-560.71869	260.57767	166.04500	-667.10834	299.60376	159.53885	-629.90149	307.24197	162.35501	-528.16150	304.17200	146.42805	-630.75452	-77.86202	1544.25330	-795.73267	87.22076	1061.13855	-767.68561	-6.85436	207.83795	-794.92700	54.28526	174.92708	-765.44000	-42.07243	488.10184	-559.28729	-37.63929	162.38620	-875.93475	-78.76101	141.10458	-733.98743	239.97725	578.30402	-717.52563	-31.42313	566.98407	-675.76160	173.81808	156.81932	-622.51935	-78.80482	157.53047	-645.20416	271.98334	878.76544	-696.74237	265.65530	750.49542	-517.90558	-72.75767	142.77501	-588.35522	-10.47178	803.20215	-717.96631	77.05933	217.63461	-669.33099	13.64077	519.98981	-643.31744	286.45053	1541.69067	-691.96454	139.12317	572.26685							-703.52679	-35.12482	615.02802	-659.20459	-77.04070	860.00317	
